<svg width="30" height="30" viewBox="0 0 30 30" fill="none" xmlns="http://www.w3.org/2000/svg">
<ellipse cx="15" cy="14.9999" rx="15" ry="14.9999" fill="#B8A4FC"/>
<ellipse cx="15" cy="14.9999" rx="15" ry="14.9999" fill="url(#paint0_radial_7623_4790)"/>
<mask id="mask0_7623_4790" style="mask-type:alpha" maskUnits="userSpaceOnUse" x="0" y="0" width="30" height="30">
<ellipse cx="15" cy="14.9999" rx="15" ry="14.9999" fill="#C4C4C4"/>
</mask>
<g mask="url(#mask0_7623_4790)">
<path d="M22.6924 24.0434L18.5752 22.8325C18.0765 22.6858 17.734 22.2281 17.734 21.7082V19.8506H12.2649V21.7082C12.2649 22.2281 11.9224 22.6858 11.4236 22.8325L7.30644 24.0434C6.30894 24.3368 5.6239 25.2523 5.6239 26.2921V29.226C5.6239 29.8733 6.14859 30.398 6.79585 30.398H23.203C23.8503 30.398 24.375 29.8733 24.375 29.226V26.2921C24.375 25.2523 23.69 24.3368 22.6924 24.0434Z" fill="#E3AA75"/>
<path d="M22.6924 24.0434L18.5752 22.8324C18.5056 22.812 18.4399 22.7841 18.3769 22.7522L14.9992 23.3663L11.622 22.7522C11.559 22.7841 11.4933 22.812 11.4236 22.8324L7.30644 24.0434C6.3089 24.3368 5.6239 25.2522 5.6239 26.292V29.226C5.6239 29.8732 6.14859 30.3979 6.79585 30.3979H23.203C23.8503 30.3979 24.375 29.8732 24.375 29.2259V26.2919C24.375 25.2522 23.69 24.3368 22.6924 24.0434Z" fill="url(#paint1_linear_7623_4790)"/>
<path d="M10.3791 23.7276L12.3147 25.3868C12.5978 25.6293 12.9587 25.763 13.3312 25.763C13.8088 25.763 14.2537 25.5492 14.5518 25.1765L14.9994 24.617L15.447 25.1765C15.7452 25.5492 16.1901 25.7629 16.6677 25.7629C17.0401 25.7629 17.4011 25.6293 17.6841 25.3867L19.6198 23.7276C19.7767 23.5931 19.8848 23.4213 19.9454 23.2354L18.5752 22.8324C18.5056 22.812 18.4399 22.7841 18.3769 22.7522L14.9992 23.3663L11.622 22.7522C11.559 22.7841 11.4933 22.812 11.4236 22.8324L10.0535 23.2354C10.1141 23.4214 10.2222 23.5931 10.3791 23.7276Z" fill="url(#paint2_linear_7623_4790)"/>
<path d="M12.2649 20.7223C13.0856 21.1607 14.0163 21.4132 14.9994 21.4132C15.9825 21.4132 16.9133 21.1607 17.734 20.7223V19.8506H12.2649V20.7223Z" fill="#D29B6E"/>
<path d="M20.2732 13.9907H20.0779V9.6936H9.92109V13.9907H9.72577C9.1864 13.9907 8.74915 14.4279 8.74915 14.9673C8.74915 15.5067 9.1864 15.9439 9.72577 15.9439H9.94082C10.1409 18.5654 12.3267 20.6316 14.9995 20.6316C17.6723 20.6316 19.8581 18.5654 20.0582 15.9439H20.2732C20.8126 15.9439 21.2498 15.5067 21.2498 14.9673C21.2498 14.428 20.8126 13.9907 20.2732 13.9907Z" fill="url(#paint3_linear_7623_4790)"/>
<path d="M18.5153 10.4749V9.6936H9.92105V13.9907H9.78148C9.27061 13.9907 8.8051 14.3582 8.75421 14.8665C8.69564 15.4511 9.15315 15.9439 9.72578 15.9439H9.94083C10.1409 18.5654 12.3267 20.6316 14.9995 20.6316C15.2667 20.6316 15.5273 20.6056 15.7832 20.5657C13.3492 20.1901 11.4837 18.0923 11.4837 15.5532V12.8186C11.4837 11.9557 12.1832 11.256 13.0462 11.256H17.734C18.1655 11.2562 18.5153 10.9064 18.5153 10.4749Z" fill="url(#paint4_linear_7623_4790)"/>
<path d="M14.9995 23.3659L11.8403 21.6108C11.6459 21.5028 11.4007 21.5786 11.3012 21.7776L10.8115 22.757C10.7473 22.8853 10.7787 23.0407 10.8876 23.134L12.8232 24.7931C13.1587 25.0807 13.6657 25.033 13.9417 24.688L14.9995 23.3659Z" fill="url(#paint5_linear_7623_4790)"/>
<path d="M14.9995 23.3659L18.1587 21.6108C18.3531 21.5028 18.5983 21.5786 18.6978 21.7776L19.1875 22.757C19.2517 22.8853 19.2203 23.0407 19.1114 23.134L17.1758 24.7931C16.8403 25.0807 16.3332 25.033 16.0572 24.688L14.9995 23.3659Z" fill="url(#paint6_linear_7623_4790)"/>
<path d="M12.6555 15.1961C12.4396 15.1961 12.2649 15.0212 12.2649 14.8055V14.4148C12.2649 14.1991 12.4396 14.0242 12.6555 14.0242C12.8715 14.0242 13.0462 14.1991 13.0462 14.4148V14.8055C13.0462 15.0212 12.8715 15.1961 12.6555 15.1961Z" fill="url(#paint7_radial_7623_4790)"/>
<path d="M17.3433 15.1961C17.1274 15.1961 16.9526 15.0212 16.9526 14.8055V14.4148C16.9526 14.1991 17.1274 14.0242 17.3433 14.0242C17.5592 14.0242 17.7339 14.1991 17.7339 14.4148V14.8055C17.7339 15.0212 17.5592 15.1961 17.3433 15.1961Z" fill="url(#paint8_radial_7623_4790)"/>
<path d="M13.0462 13.5999H12.2649C12.049 13.5999 11.8743 13.425 11.8743 13.2092C11.8743 12.9935 12.049 12.8186 12.2649 12.8186H13.0462C13.2621 12.8186 13.4369 12.9935 13.4369 13.2092C13.4369 13.425 13.2622 13.5999 13.0462 13.5999Z" fill="url(#paint9_linear_7623_4790)"/>
<path d="M17.734 13.5999H16.9527C16.7368 13.5999 16.562 13.425 16.562 13.2092C16.562 12.9935 16.7368 12.8186 16.9527 12.8186H17.734C17.9499 12.8186 18.1246 12.9935 18.1246 13.2092C18.1246 13.425 17.9499 13.5999 17.734 13.5999Z" fill="url(#paint10_linear_7623_4790)"/>
<path d="M13.455 16.5627C13.332 16.5627 13.2406 16.6752 13.261 16.7964C13.3879 17.5486 14.1179 18.1253 14.9994 18.1253C15.8809 18.1253 16.6109 17.5486 16.7378 16.7964C16.7583 16.6752 16.6669 16.5627 16.5439 16.5627H13.455Z" fill="white"/>
<path d="M14.9995 26.8816C15.2153 26.8816 15.3902 26.7067 15.3902 26.491C15.3902 26.2752 15.2153 26.1003 14.9995 26.1003C14.7838 26.1003 14.6089 26.2752 14.6089 26.491C14.6089 26.7067 14.7838 26.8816 14.9995 26.8816Z" fill="url(#paint11_radial_7623_4790)"/>
<path d="M14.9995 29.2256C15.2153 29.2256 15.3902 29.0507 15.3902 28.835C15.3902 28.6192 15.2153 28.4443 14.9995 28.4443C14.7838 28.4443 14.6089 28.6192 14.6089 28.835C14.6089 29.0507 14.7838 29.2256 14.9995 29.2256Z" fill="url(#paint12_radial_7623_4790)"/>
<path d="M19.3764 8.91187H10.6226C9.42981 8.91187 8.51556 9.97159 8.69045 11.1514L9.1398 14.1833L10.0169 14.0749C10.4083 14.0265 10.7024 13.694 10.7024 13.2995V11.2557C10.7024 10.8242 11.0522 10.4744 11.4837 10.4744H18.5153C18.9468 10.4744 19.2966 10.8242 19.2966 11.2557V13.2995C19.2966 13.6939 19.5907 14.0265 19.9822 14.0749L20.8592 14.1832L21.3086 11.1514C21.4834 9.97154 20.5692 8.91187 19.3764 8.91187Z" fill="url(#paint13_linear_7623_4790)"/>
<path d="M20.2613 6.27516C20.1862 6.04252 19.916 5.92959 19.7025 6.04867C19.2956 6.27578 18.539 6.56855 17.3433 6.56855H13.4368C11.9266 6.56855 10.7023 7.79281 10.7023 9.30308C10.7023 9.95033 11.227 10.475 11.8742 10.475H18.1246C19.5926 10.475 21.0606 8.75118 20.2613 6.27516Z" fill="url(#paint14_linear_7623_4790)"/>
<path d="M9.13972 26.8821V30.3979H7.96777V28.054C7.96777 27.4068 8.49247 26.8821 9.13972 26.8821Z" fill="url(#paint15_linear_7623_4790)"/>
<path d="M20.8591 26.8821V30.3979H22.0311V28.054C22.0311 27.4068 21.5064 26.8821 20.8591 26.8821Z" fill="url(#paint16_linear_7623_4790)"/>
<path d="M9.13977 30.3978H10.7024V23.0444L9.13977 23.504V30.3978Z" fill="url(#paint17_linear_7623_4790)"/>
<path d="M20.8592 30.3978H19.2966V23.0444L20.8592 23.504V30.3978Z" fill="url(#paint18_linear_7623_4790)"/>
<path d="M9.13977 30.3979H9.92107V27.6634C9.92107 27.2319 9.57126 26.8821 9.13977 26.8821V30.3979V30.3979Z" fill="#FFD164"/>
<path d="M20.8592 30.3979H20.0779V27.6634C20.0779 27.2319 20.4277 26.8821 20.8592 26.8821V30.3979Z" fill="#FFD164"/>
<path d="M13.0277 7.93022C13.0336 8.48412 13.5242 8.91231 14.0781 8.91231H19.3763C19.6574 8.91231 19.9221 8.97293 20.1617 9.07838C20.5175 8.35603 20.6226 7.39323 20.2607 6.27352C20.1859 6.04203 19.9159 5.92933 19.7036 6.04799C19.2968 6.27519 18.54 6.56848 17.3433 6.56848H13.4368C13.4124 6.58283 13.3847 6.59903 13.3603 6.61337C13.1491 7.00121 13.0276 7.44489 13.0276 7.91764C13.0276 7.92178 13.0277 7.92598 13.0277 7.93022Z" fill="url(#paint19_linear_7623_4790)"/>
</g>
<defs>
<radialGradient id="paint0_radial_7623_4790" cx="0" cy="0" r="1" gradientUnits="userSpaceOnUse" gradientTransform="translate(5.9375 3.43748) rotate(51.8089) scale(29.8203 29.8204)">
<stop offset="0.492268" stop-color="#B8A4FC"/>
<stop offset="1" stop-color="#B859E4"/>
</radialGradient>
<linearGradient id="paint1_linear_7623_4790" x1="14.9994" y1="22.7522" x2="14.9994" y2="30.3979" gradientUnits="userSpaceOnUse">
<stop stop-color="#FF414F"/>
<stop offset="1" stop-color="#FF7456"/>
</linearGradient>
<linearGradient id="paint2_linear_7623_4790" x1="14.9994" y1="22.7522" x2="14.9994" y2="25.763" gradientUnits="userSpaceOnUse">
<stop stop-color="#B33639"/>
<stop offset="1" stop-color="#E64549"/>
</linearGradient>
<linearGradient id="paint3_linear_7623_4790" x1="9.37501" y1="10.9376" x2="19.375" y2="18.4377" gradientUnits="userSpaceOnUse">
<stop stop-color="#EDB379"/>
<stop offset="1" stop-color="#FFC182"/>
</linearGradient>
<linearGradient id="paint4_linear_7623_4790" x1="9.06248" y1="11.2501" x2="15" y2="14.0627" gradientUnits="userSpaceOnUse">
<stop stop-color="#C58646"/>
<stop offset="1" stop-color="#C68748" stop-opacity="0.06"/>
</linearGradient>
<linearGradient id="paint5_linear_7623_4790" x1="12.889" y1="21.5615" x2="12.889" y2="24.9812" gradientUnits="userSpaceOnUse">
<stop stop-color="#FF414F"/>
<stop offset="1" stop-color="#FF7456"/>
</linearGradient>
<linearGradient id="paint6_linear_7623_4790" x1="17.11" y1="21.5615" x2="17.11" y2="24.9812" gradientUnits="userSpaceOnUse">
<stop stop-color="#FF414F"/>
<stop offset="1" stop-color="#FF7456"/>
</linearGradient>
<radialGradient id="paint7_radial_7623_4790" cx="0" cy="0" r="1" gradientUnits="userSpaceOnUse" gradientTransform="translate(12.5 14.3747) rotate(71.565) scale(0.988206 0.658807)">
<stop stop-color="#040404"/>
<stop offset="1" stop-color="#767676"/>
</radialGradient>
<radialGradient id="paint8_radial_7623_4790" cx="0" cy="0" r="1" gradientUnits="userSpaceOnUse" gradientTransform="translate(17.1877 14.3747) rotate(71.565) scale(0.988206 0.658807)">
<stop stop-color="#040404"/>
<stop offset="1" stop-color="#767676"/>
</radialGradient>
<linearGradient id="paint9_linear_7623_4790" x1="12.8125" y1="12.8125" x2="12.8125" y2="13.75" gradientUnits="userSpaceOnUse">
<stop stop-color="#332A2E"/>
<stop offset="1" stop-color="#6E5A64"/>
</linearGradient>
<linearGradient id="paint10_linear_7623_4790" x1="17.5002" y1="12.8125" x2="17.5002" y2="13.75" gradientUnits="userSpaceOnUse">
<stop stop-color="#332A2E"/>
<stop offset="1" stop-color="#6E5A64"/>
</linearGradient>
<radialGradient id="paint11_radial_7623_4790" cx="0" cy="0" r="1" gradientUnits="userSpaceOnUse" gradientTransform="translate(15.0001 25.9372) rotate(90.0312) scale(0.94441 0.944414)">
<stop stop-color="#FFC350"/>
<stop offset="1" stop-color="#FFD179" stop-opacity="0.97"/>
</radialGradient>
<radialGradient id="paint12_radial_7623_4790" cx="0" cy="0" r="1" gradientUnits="userSpaceOnUse" gradientTransform="translate(15.0001 28.2812) rotate(90.0312) scale(0.94441 0.944415)">
<stop stop-color="#FFC350"/>
<stop offset="1" stop-color="#FFD179" stop-opacity="0.97"/>
</radialGradient>
<linearGradient id="paint13_linear_7623_4790" x1="14.9995" y1="8.91187" x2="14.9995" y2="14.1833" gradientUnits="userSpaceOnUse">
<stop stop-color="#362A30"/>
<stop offset="1" stop-color="#826574"/>
</linearGradient>
<linearGradient id="paint14_linear_7623_4790" x1="10.9375" y1="9.06269" x2="20.625" y2="6.87518" gradientUnits="userSpaceOnUse">
<stop stop-color="#64505A"/>
<stop offset="1" stop-color="#78606C"/>
</linearGradient>
<linearGradient id="paint15_linear_7623_4790" x1="8.55375" y1="26.8821" x2="8.55375" y2="30.3979" gradientUnits="userSpaceOnUse">
<stop stop-color="#B33639"/>
<stop offset="1" stop-color="#E64549"/>
</linearGradient>
<linearGradient id="paint16_linear_7623_4790" x1="21.4451" y1="26.8821" x2="21.4451" y2="30.3979" gradientUnits="userSpaceOnUse">
<stop stop-color="#B33639"/>
<stop offset="1" stop-color="#E64549"/>
</linearGradient>
<linearGradient id="paint17_linear_7623_4790" x1="9.92107" y1="23.0444" x2="9.92107" y2="30.3978" gradientUnits="userSpaceOnUse">
<stop stop-color="#FFCA62"/>
<stop offset="1" stop-color="#FFCA62" stop-opacity="0.38"/>
</linearGradient>
<linearGradient id="paint18_linear_7623_4790" x1="20.0779" y1="23.0444" x2="20.0779" y2="30.3978" gradientUnits="userSpaceOnUse">
<stop stop-color="#FFCA62"/>
<stop offset="1" stop-color="#FFCA62" stop-opacity="0.38"/>
</linearGradient>
<linearGradient id="paint19_linear_7623_4790" x1="13.1249" y1="8.43767" x2="20.3124" y2="6.25015" gradientUnits="userSpaceOnUse">
<stop stop-color="#7A646F"/>
<stop offset="1" stop-color="#6E5A64"/>
</linearGradient>
</defs>
</svg>
