<svg width="30" height="30" viewBox="0 0 30 30" fill="none" xmlns="http://www.w3.org/2000/svg">
<ellipse cx="15" cy="14.9999" rx="15" ry="14.9999" fill="#A4FDCD"/>
<ellipse cx="15" cy="14.9999" rx="15" ry="14.9999" fill="url(#paint0_radial_7623_4905)"/>
<mask id="mask0_7623_4905" style="mask-type:alpha" maskUnits="userSpaceOnUse" x="0" y="0" width="30" height="30">
<ellipse cx="15" cy="14.9999" rx="15" ry="14.9999" fill="#C4C4C4"/>
</mask>
<g mask="url(#mask0_7623_4905)">
<path d="M22.6925 23.6844L18.6828 22.5051L15.6497 24.5272C15.256 24.7896 14.7432 24.7896 14.3496 24.5272L11.3165 22.5051L7.30677 23.6844C6.30926 23.9778 5.62427 24.8933 5.62427 25.933V28.8669C5.62427 29.5141 6.14897 30.0388 6.79617 30.0388H23.203C23.8502 30.0388 24.3749 29.5141 24.3749 28.8669V25.933C24.375 24.8933 23.69 23.9778 22.6925 23.6844Z" fill="url(#paint1_linear_7623_4905)"/>
<path d="M19.2968 19.1016H10.7027C9.40824 19.1016 8.35889 20.1509 8.35889 21.4454C8.35889 24.0343 10.4576 26.133 13.0465 26.133H16.9529C19.5418 26.133 21.6405 24.0343 21.6405 21.4454C21.6406 20.1509 20.5912 19.1016 19.2968 19.1016Z" fill="url(#paint2_linear_7623_4905)"/>
<path d="M19.1927 20.2734C20.043 20.2734 20.3769 21.3762 19.6694 21.8479L15.6497 24.5277C15.2561 24.7902 14.7432 24.7902 14.3496 24.5277L10.3298 21.8479C9.62233 21.3763 9.95626 20.2734 10.8066 20.2734H19.1927Z" fill="url(#paint3_linear_7623_4905)"/>
<path d="M11.3168 22.5059L14.3499 24.5279C14.7436 24.7904 15.2564 24.7904 15.65 24.5279L18.6831 22.5059H18.6832L18.5757 22.4743C18.077 22.3276 17.7345 21.8699 17.7345 21.35V19.4924H12.2655V21.35C12.2655 21.8699 11.923 22.3276 11.4242 22.4743L11.3168 22.5059Z" fill="url(#paint4_linear_7623_4905)"/>
<path d="M12.2654 20.3642C13.0861 20.8026 14.0168 21.055 14.9998 21.055C15.9829 21.055 16.9136 20.8026 17.7343 20.3642V19.4924H12.2654V20.3642Z" fill="url(#paint5_linear_7623_4905)"/>
<path d="M20.2735 13.6327H20.0782V8.94507L9.92158 9.72635V13.6327H9.72625C9.18689 13.6327 8.74963 14.0699 8.74963 14.6093C8.74963 15.1487 9.18684 15.5859 9.72625 15.5859H9.94131C10.1415 18.2074 12.3271 20.2735 14.9999 20.2735C17.6727 20.2735 19.8584 18.2074 20.0585 15.5859H20.2736C20.8129 15.5859 21.2502 15.1487 21.2502 14.6093C21.2501 14.0699 20.8129 13.6327 20.2735 13.6327Z" fill="url(#paint6_linear_7623_4905)"/>
<path d="M18.5156 9.72582V9.33521L9.92152 9.72582V13.6322H9.78194C9.27111 13.6322 8.80556 13.9997 8.75469 14.508C8.69614 15.0926 9.15364 15.5854 9.72623 15.5854H9.9413C10.1414 18.2069 12.327 20.273 14.9998 20.273C15.267 20.273 15.5276 20.247 15.7836 20.2072C13.3496 19.8316 11.4841 17.7339 11.4841 15.1948V12.0697C11.4841 11.2067 12.1836 10.5071 13.0466 10.5071H17.7343C18.1658 10.5071 18.5156 10.1573 18.5156 9.72582Z" fill="url(#paint7_linear_7623_4905)"/>
<path d="M12.656 14.8047C12.4401 14.8047 12.2654 14.6298 12.2654 14.414V14.0234C12.2654 13.8077 12.4401 13.6328 12.656 13.6328C12.8719 13.6328 13.0466 13.8077 13.0466 14.0234V14.414C13.0467 14.6298 12.8719 14.8047 12.656 14.8047Z" fill="url(#paint8_radial_7623_4905)"/>
<path d="M17.3436 14.8047C17.1277 14.8047 16.953 14.6298 16.953 14.414V14.0234C16.953 13.8077 17.1277 13.6328 17.3436 13.6328C17.5595 13.6328 17.7342 13.8077 17.7342 14.0234V14.414C17.7342 14.6298 17.5595 14.8047 17.3436 14.8047Z" fill="url(#paint9_radial_7623_4905)"/>
<path d="M12.265 13.2422C12.0808 13.2422 11.9167 13.1114 11.8816 12.9235C11.8415 12.7116 11.9812 12.5075 12.1933 12.4677L12.9746 12.3211C13.1901 12.2807 13.3912 12.4213 13.4304 12.6332C13.4705 12.8451 13.3309 13.0492 13.1188 13.0891L12.3375 13.2356C12.313 13.2401 12.2887 13.2422 12.265 13.2422Z" fill="url(#paint10_linear_7623_4905)"/>
<path d="M17.7347 13.2422C17.711 13.2422 17.6866 13.2401 17.6622 13.2355L16.8809 13.089C16.6688 13.0491 16.5292 12.8451 16.5692 12.6332C16.6089 12.4213 16.8103 12.2808 17.0251 12.3211L17.8064 12.4676C18.0185 12.5075 18.1581 12.7116 18.1181 12.9235C18.083 13.1113 17.919 13.2422 17.7347 13.2422Z" fill="url(#paint11_linear_7623_4905)"/>
<path d="M13.4373 6.21045C11.4956 6.21045 9.92151 7.7845 9.92151 9.72617H18.1249C19.918 9.72617 21.3976 8.3838 21.6135 6.64919C21.6425 6.41648 21.4575 6.21045 21.223 6.21045C21.223 6.21045 13.4373 6.21045 13.4373 6.21045Z" fill="url(#paint12_linear_7623_4905)"/>
<path d="M21.223 6.21045H14.3549C13.8053 6.65468 13.3918 7.26059 13.1879 7.95614C13.0428 8.45096 13.4275 8.9449 13.9432 8.9449H20.3295C21.0211 8.3866 21.499 7.57409 21.6139 6.64709C21.6426 6.41513 21.4568 6.21045 21.223 6.21045Z" fill="url(#paint13_linear_7623_4905)"/>
<path d="M13.4372 30.0394H12.6559V25.3518C12.6559 25.136 12.8308 24.9612 13.0465 24.9612C13.2623 24.9612 13.4371 25.1361 13.4371 25.3518L13.4372 30.0394Z" fill="url(#paint14_linear_7623_4905)"/>
<path d="M17.3437 30.0394H16.5624V25.3518C16.5624 25.136 16.7373 24.9612 16.953 24.9612C17.1688 24.9612 17.3436 25.1361 17.3436 25.3518L17.3437 30.0394Z" fill="url(#paint15_linear_7623_4905)"/>
<path d="M14.9998 17.5385C14.4139 17.5385 13.8729 17.3505 13.5536 17.0354C13.3999 16.8839 13.3984 16.6365 13.5498 16.483C13.7012 16.3294 13.9492 16.3277 14.1022 16.4792C14.2323 16.6075 14.5455 16.7572 14.9998 16.7572C15.4542 16.7572 15.7674 16.6075 15.8975 16.4792C16.0504 16.3277 16.2984 16.3294 16.4499 16.483C16.6013 16.6365 16.5998 16.8839 16.446 17.0354C16.1268 17.3505 15.5858 17.5385 14.9998 17.5385Z" fill="#A06E50"/>
</g>
<defs>
<radialGradient id="paint0_radial_7623_4905" cx="0" cy="0" r="1" gradientUnits="userSpaceOnUse" gradientTransform="translate(4.9 4.69997) rotate(51.2811) scale(30.3757 30.3757)">
<stop offset="0.360011" stop-color="#A4FDCD"/>
<stop offset="1" stop-color="#A6E4FF"/>
</radialGradient>
<linearGradient id="paint1_linear_7623_4905" x1="6.87488" y1="24.062" x2="24.6874" y2="28.1245" gradientUnits="userSpaceOnUse">
<stop stop-color="#C4EB99"/>
<stop offset="1" stop-color="#D1FAA3"/>
</linearGradient>
<linearGradient id="paint2_linear_7623_4905" x1="9.06251" y1="20" x2="21.25" y2="25" gradientUnits="userSpaceOnUse">
<stop stop-color="#ACE694"/>
<stop offset="1" stop-color="#B4F09B"/>
</linearGradient>
<linearGradient id="paint3_linear_7623_4905" x1="10.6249" y1="20.625" x2="19.6874" y2="22.8125" gradientUnits="userSpaceOnUse">
<stop stop-color="#5DCC94"/>
<stop offset="1" stop-color="#69E8A9"/>
</linearGradient>
<linearGradient id="paint4_linear_7623_4905" x1="12.5002" y1="20.0002" x2="17.8126" y2="24.6877" gradientUnits="userSpaceOnUse">
<stop stop-color="#C98D69"/>
<stop offset="1" stop-color="#D49774"/>
</linearGradient>
<linearGradient id="paint5_linear_7623_4905" x1="12.5001" y1="20.0002" x2="17.8126" y2="21.2502" gradientUnits="userSpaceOnUse">
<stop stop-color="#A06E50"/>
<stop offset="1" stop-color="#A06E50" stop-opacity="0"/>
</linearGradient>
<linearGradient id="paint6_linear_7623_4905" x1="10.0001" y1="9.68771" x2="19.0625" y2="19.3752" gradientUnits="userSpaceOnUse">
<stop offset="0.307876" stop-color="#CD916E"/>
<stop offset="1" stop-color="#EBB798"/>
</linearGradient>
<linearGradient id="paint7_linear_7623_4905" x1="9.68755" y1="9.06207" x2="13.6326" y2="20.273" gradientUnits="userSpaceOnUse">
<stop stop-color="#B67F5F"/>
<stop offset="1" stop-color="#B67F5F" stop-opacity="0"/>
</linearGradient>
<radialGradient id="paint8_radial_7623_4905" cx="0" cy="0" r="1" gradientUnits="userSpaceOnUse" gradientTransform="translate(12.5004 13.9833) rotate(71.5649) scale(0.988127 0.658755)">
<stop stop-color="#040404"/>
<stop offset="1" stop-color="#767676"/>
</radialGradient>
<radialGradient id="paint9_radial_7623_4905" cx="0" cy="0" r="1" gradientUnits="userSpaceOnUse" gradientTransform="translate(17.1881 13.9833) rotate(71.5649) scale(0.988127 0.658755)">
<stop stop-color="#040404"/>
<stop offset="1" stop-color="#767676"/>
</radialGradient>
<linearGradient id="paint10_linear_7623_4905" x1="12.656" y1="12.3142" x2="12.656" y2="13.2422" gradientUnits="userSpaceOnUse">
<stop stop-color="#4C3D45"/>
<stop offset="1" stop-color="#6B5560" stop-opacity="0.76"/>
</linearGradient>
<linearGradient id="paint11_linear_7623_4905" x1="17.3436" y1="12.3142" x2="17.3436" y2="13.2422" gradientUnits="userSpaceOnUse">
<stop stop-color="#4C3D45"/>
<stop offset="1" stop-color="#6B5560" stop-opacity="0.76"/>
</linearGradient>
<linearGradient id="paint12_linear_7623_4905" x1="10.2026" y1="8.61642" x2="21.0876" y2="4.87769" gradientUnits="userSpaceOnUse">
<stop stop-color="#4D3D45"/>
<stop offset="1" stop-color="#78606C"/>
</linearGradient>
<linearGradient id="paint13_linear_7623_4905" x1="13.2674" y1="8.37572" x2="21.0066" y2="5.36811" gradientUnits="userSpaceOnUse">
<stop stop-color="#8A6F7D"/>
<stop offset="1" stop-color="#6E5A64" stop-opacity="0"/>
</linearGradient>
<linearGradient id="paint14_linear_7623_4905" x1="12.8125" y1="27.1874" x2="13.4375" y2="27.1874" gradientUnits="userSpaceOnUse">
<stop stop-color="#FFD164"/>
<stop offset="1" stop-color="#FFBE64"/>
</linearGradient>
<linearGradient id="paint15_linear_7623_4905" x1="16.719" y1="27.1874" x2="17.344" y2="27.1874" gradientUnits="userSpaceOnUse">
<stop stop-color="#FFD164"/>
<stop offset="1" stop-color="#FFBE64"/>
</linearGradient>
</defs>
</svg>
