<svg width="30" height="30" viewBox="0 0 30 30" fill="none" xmlns="http://www.w3.org/2000/svg">
<circle cx="15" cy="15" r="15" fill="#FEC0B2"/>
<circle cx="15" cy="15" r="15" fill="url(#paint0_radial_7623_4789)"/>
<mask id="mask0_7623_4789" style="mask-type:alpha" maskUnits="userSpaceOnUse" x="0" y="0" width="30" height="30">
<circle cx="15" cy="15" r="15" fill="#C4C4C4"/>
</mask>
<g mask="url(#mask0_7623_4789)">
<path d="M25.2252 22.2345C25.2581 19.966 24.5019 19.5714 24.1238 18.2399C23.7432 16.8993 24.1304 15.984 23.6799 14.5C23.2608 13.1192 22.4992 12.8859 22.2662 10.9246C21.8716 7.60389 18.288 5.89429 16.5126 5.89429C16.0105 5.89429 15.6677 6.0217 15.4373 6.17411C15.1705 6.35059 14.8298 6.35059 14.5631 6.17411C14.3326 6.0217 13.9898 5.89429 13.4878 5.89429C11.7124 5.89429 8.12872 7.60389 7.73419 10.9246C7.50114 12.8859 6.73964 13.1191 6.32046 14.5C5.86999 15.984 6.25725 16.8993 5.87663 18.2399C5.49853 19.5714 4.74234 19.966 4.77521 22.2345C4.81333 24.8653 3.2957 25.4566 3.88749 27.1991C4.32918 28.4995 6.71499 29.5663 6.71499 29.5663H23.2854C23.2854 29.5663 25.6712 28.4995 26.1129 27.1991C26.7047 25.4566 25.187 24.8653 25.2252 22.2345Z" fill="url(#paint1_linear_7623_4789)"/>
<path d="M15.0002 6.30645C14.8483 6.30645 14.6964 6.26235 14.5631 6.17411C14.3326 6.0217 13.9898 5.89429 13.4878 5.89429C11.7124 5.89429 8.12872 7.60389 7.73419 10.9246C7.50114 12.8859 6.73964 13.1191 6.32046 14.5C5.86999 15.984 6.25725 16.8993 5.87663 18.2399C5.49853 19.5714 4.74234 19.966 4.77521 22.2345C4.81333 24.8653 3.2957 25.4566 3.88749 27.1991C4.32918 28.4995 6.71499 29.5663 6.71499 29.5663H15.0002V6.30645Z" fill="url(#paint2_linear_7623_4789)"/>
<path d="M22.4951 25.0637L18.4203 23.6255C17.7893 23.4029 17.3674 22.8065 17.3674 22.1374V20.0977H12.633V22.1374C12.633 22.8065 12.211 23.4029 11.58 23.6255L7.50522 25.0637C6.55879 25.3978 5.9259 26.2923 5.9259 27.296V29.172C5.9259 29.8256 6.45583 30.3555 7.10949 30.3555H22.8909C23.5445 30.3555 24.0744 29.8256 24.0744 29.172V27.296C24.0744 26.2923 23.4416 25.3978 22.4951 25.0637Z" fill="url(#paint3_linear_7623_4789)"/>
<path d="M22.4951 25.0639L19.7762 24.1042C18.7061 25.5832 17.2499 27.2142 15.5547 28.118C15.2089 28.3024 14.7914 28.3024 14.4456 28.118C12.7504 27.2143 11.2942 25.5832 10.2241 24.1042L7.50522 25.0639C6.55879 25.398 5.9259 26.2925 5.9259 27.2962V29.1721C5.9259 29.8258 6.45583 30.3557 7.10949 30.3557H22.8909C23.5445 30.3557 24.0744 29.8258 24.0744 29.1721V27.2962C24.0744 26.2925 23.4415 25.398 22.4951 25.0639Z" fill="url(#paint4_linear_7623_4789)"/>
<path d="M12.633 21.171C13.3614 21.4931 14.1618 21.6758 15.0002 21.6758C15.8385 21.6758 16.6389 21.4931 17.3673 21.171V20.0977H12.6329L12.633 21.171Z" fill="url(#paint5_linear_7623_4789)"/>
<path d="M15.0002 20.8863C12.1675 20.8863 9.87122 18.59 9.87122 15.7573V9.05029H20.1291V15.7574C20.1291 18.59 17.8328 20.8863 15.0002 20.8863Z" fill="url(#paint6_linear_7623_4789)"/>
<path d="M9.87122 9.05029V15.7574C9.87122 18.59 12.1675 20.8863 15.0002 20.8863C15.2692 20.8863 15.5313 20.8593 15.7892 20.8195C13.3322 20.439 11.4493 18.321 11.4493 15.7574V13.7056C11.4493 13.3812 11.55 13.0678 11.7218 12.7926C11.7227 12.7912 11.7236 12.7897 11.7245 12.7883C12.3723 11.7487 12.9787 11.5959 13.6807 11.419C14.084 11.3174 14.5537 11.199 15.0001 10.9015C15.4465 11.199 15.9163 11.3174 16.3195 11.419C17.0216 11.5959 17.628 11.7487 18.2757 12.7882C18.8784 13.7552 19.5527 14.2897 20.129 14.7026V9.05029H9.87122Z" fill="url(#paint7_linear_7623_4789)"/>
<path d="M15.0002 18.5195C14.408 18.5195 13.862 18.3296 13.5395 18.0113C13.3842 17.858 13.3827 17.6084 13.5356 17.4535C13.6894 17.2982 13.9391 17.2967 14.0935 17.4496C14.2249 17.5791 14.5408 17.7305 15.0001 17.7305C15.4594 17.7305 15.7753 17.5791 15.9067 17.4496C16.0612 17.2966 16.3109 17.2982 16.4646 17.4535C16.6176 17.6084 16.616 17.858 16.4607 18.0113C16.1383 18.3296 15.5923 18.5195 15.0002 18.5195Z" fill="#A06E50"/>
<path d="M12.6329 15.7576C12.4148 15.7576 12.2384 15.5811 12.2384 15.363V14.9685C12.2384 14.7504 12.4149 14.574 12.6329 14.574C12.851 14.574 13.0275 14.7505 13.0275 14.9685V15.363C13.0275 15.5811 12.851 15.7576 12.6329 15.7576Z" fill="url(#paint8_radial_7623_4789)"/>
<path d="M17.3673 15.7576C17.1492 15.7576 16.9728 15.5811 16.9728 15.363V14.9685C16.9728 14.7504 17.1493 14.574 17.3673 14.574C17.5854 14.574 17.7618 14.7505 17.7618 14.9685V15.363C17.7618 15.5811 17.5854 15.7576 17.3673 15.7576Z" fill="url(#paint9_radial_7623_4789)"/>
<path d="M13.0275 14.1799H12.2384C12.0203 14.1799 11.8439 14.0034 11.8439 13.7854C11.8439 13.5674 12.0204 13.3909 12.2384 13.3909H13.0275C13.2456 13.3909 13.422 13.5674 13.422 13.7854C13.422 14.0034 13.2455 14.1799 13.0275 14.1799Z" fill="url(#paint10_linear_7623_4789)"/>
<path d="M17.7618 14.1799H16.9728C16.7547 14.1799 16.5782 14.0034 16.5782 13.7854C16.5782 13.5674 16.7547 13.3909 16.9728 13.3909H17.7618C17.9799 13.3909 18.1564 13.5674 18.1564 13.7854C18.1564 14.0034 17.9799 14.1799 17.7618 14.1799Z" fill="url(#paint11_linear_7623_4789)"/>
<path d="M8.81477 27.2123L6.80094 25.4636C6.59459 25.6318 6.42122 25.8333 6.28271 26.0582L8.2977 27.8079C8.55659 28.0329 8.70532 28.3589 8.70532 28.7018V30.355H9.49438V28.7018C9.49443 28.13 9.24671 27.5872 8.81477 27.2123Z" fill="url(#paint12_linear_7623_4789)"/>
<path d="M21.2033 27.2123L23.2171 25.4636C23.4235 25.6318 23.5968 25.8333 23.7353 26.0582L21.7204 27.8079C21.4615 28.0329 21.3127 28.3589 21.3127 28.7018V30.355H20.5237V28.7018C20.5236 28.13 20.7713 27.5871 21.2033 27.2123Z" fill="url(#paint13_linear_7623_4789)"/>
<path d="M24.1237 18.2399C23.7431 16.8993 24.1304 15.984 23.6799 14.5C23.2607 13.1192 22.4992 12.8859 22.2662 10.9246C21.8716 7.60389 18.2879 5.89429 16.5125 5.89429C16.0105 5.89429 15.6677 6.0217 15.4372 6.17411C15.3039 6.26235 15.152 6.30645 15.0001 6.30645V9.83964C16.0193 11.1219 17.5317 10.1026 18.9455 12.3712C20.1471 14.2994 21.656 14.2507 22.1868 15.7709C22.3389 16.2066 22.2564 16.6722 22.2928 17.1322C22.4963 19.703 24.4689 20.8866 25.3557 23.5693C25.2711 23.1862 25.2176 22.7505 25.2251 22.2345C25.258 19.966 24.5018 19.5714 24.1237 18.2399Z" fill="url(#paint14_linear_7623_4789)"/>
<path d="M5.87659 18.2399C6.25722 16.8993 5.86995 15.984 6.32043 14.5C6.73961 13.1192 7.50115 12.8859 7.73416 10.9246C8.12873 7.60389 11.7124 5.89429 13.4878 5.89429C13.9898 5.89429 14.3326 6.0217 14.5631 6.17411C14.6964 6.26235 14.8483 6.30645 15.0002 6.30645V9.83964C13.981 11.1219 12.4686 10.1026 11.0548 12.3712C9.85319 14.2994 8.3443 14.2507 7.81351 15.7709C7.66139 16.2066 7.7439 16.6722 7.7075 17.1322C7.50407 19.703 5.53142 20.8866 4.64465 23.5693C4.72922 23.1862 4.78268 22.7505 4.77518 22.2345C4.74231 19.966 5.4985 19.5714 5.87659 18.2399Z" fill="url(#paint15_linear_7623_4789)"/>
</g>
<defs>
<radialGradient id="paint0_radial_7623_4789" cx="0" cy="0" r="1" gradientUnits="userSpaceOnUse" gradientTransform="translate(4.6875 4.6875) rotate(48.4682) scale(29.2217)">
<stop offset="0.449021" stop-color="#FEC0B2"/>
<stop offset="1" stop-color="#FF866B"/>
</radialGradient>
<linearGradient id="paint1_linear_7623_4789" x1="15.0002" y1="5.89429" x2="15.0002" y2="29.5663" gradientUnits="userSpaceOnUse">
<stop stop-color="#33282D"/>
<stop offset="1" stop-color="#6E5561"/>
</linearGradient>
<linearGradient id="paint2_linear_7623_4789" x1="9.37527" y1="5.89429" x2="9.37527" y2="29.5663" gradientUnits="userSpaceOnUse">
<stop stop-color="#1A1417"/>
<stop offset="1" stop-color="#5A4650"/>
</linearGradient>
<linearGradient id="paint3_linear_7623_4789" x1="11.4356" y1="23.6346" x2="16.0214" y2="29.5092" gradientUnits="userSpaceOnUse">
<stop stop-color="#D4A06C"/>
<stop offset="1" stop-color="#FABD80"/>
</linearGradient>
<linearGradient id="paint4_linear_7623_4789" x1="8.75" y1="24.6876" x2="20.9375" y2="29.3751" gradientUnits="userSpaceOnUse">
<stop stop-color="#ACED8E"/>
<stop offset="1" stop-color="#A6FFAA"/>
</linearGradient>
<linearGradient id="paint5_linear_7623_4789" x1="12.7848" y1="20.3222" x2="14.0011" y2="22.807" gradientUnits="userSpaceOnUse">
<stop stop-color="#C58646"/>
<stop offset="1" stop-color="#C68748" stop-opacity="0.06"/>
</linearGradient>
<linearGradient id="paint6_linear_7623_4789" x1="10.3848" y1="10.3965" x2="20.0726" y2="15.9064" gradientUnits="userSpaceOnUse">
<stop stop-color="#EDB379"/>
<stop offset="1" stop-color="#FFC182"/>
</linearGradient>
<linearGradient id="paint7_linear_7623_4789" x1="10.2003" y1="10.7346" x2="16.5035" y2="13.6327" gradientUnits="userSpaceOnUse">
<stop stop-color="#C58646"/>
<stop offset="1" stop-color="#C68748" stop-opacity="0.06"/>
</linearGradient>
<radialGradient id="paint8_radial_7623_4789" cx="0" cy="0" r="1" gradientUnits="userSpaceOnUse" gradientTransform="translate(12.4758 14.928) rotate(71.5651) scale(0.99803 0.665353)">
<stop stop-color="#040404"/>
<stop offset="1" stop-color="#767676"/>
</radialGradient>
<radialGradient id="paint9_radial_7623_4789" cx="0" cy="0" r="1" gradientUnits="userSpaceOnUse" gradientTransform="translate(17.2102 14.928) rotate(71.5651) scale(0.99803 0.665353)">
<stop stop-color="#040404"/>
<stop offset="1" stop-color="#767676"/>
</radialGradient>
<linearGradient id="paint10_linear_7623_4789" x1="11.9468" y1="13.5938" x2="12.1072" y2="14.4128" gradientUnits="userSpaceOnUse">
<stop stop-color="#403239"/>
<stop offset="1" stop-color="#806371"/>
</linearGradient>
<linearGradient id="paint11_linear_7623_4789" x1="16.6811" y1="13.5938" x2="16.8415" y2="14.4128" gradientUnits="userSpaceOnUse">
<stop stop-color="#403239"/>
<stop offset="1" stop-color="#806371"/>
</linearGradient>
<linearGradient id="paint12_linear_7623_4789" x1="7.81252" y1="24.9996" x2="7.88855" y2="30.355" gradientUnits="userSpaceOnUse">
<stop stop-color="#87BA70"/>
<stop offset="1" stop-color="#87BA70" stop-opacity="0"/>
</linearGradient>
<linearGradient id="paint13_linear_7623_4789" x1="22.1875" y1="24.9996" x2="22.1295" y2="30.355" gradientUnits="userSpaceOnUse">
<stop stop-color="#86C985"/>
<stop offset="1" stop-color="#86C985" stop-opacity="0"/>
</linearGradient>
<linearGradient id="paint14_linear_7623_4789" x1="15.9375" y1="6.24982" x2="25" y2="23.1248" gradientUnits="userSpaceOnUse">
<stop stop-color="#5C4B53"/>
<stop offset="1" stop-color="#7A646F"/>
</linearGradient>
<linearGradient id="paint15_linear_7623_4789" x1="11.5625" y1="5.93732" x2="4.68754" y2="26.5623" gradientUnits="userSpaceOnUse">
<stop offset="0.00373261" stop-color="#4A3B43"/>
<stop offset="1" stop-color="#826875"/>
</linearGradient>
</defs>
</svg>
