<svg width="30" height="30" viewBox="0 0 30 30" fill="none" xmlns="http://www.w3.org/2000/svg">
<g clip-path="url(#clip0_7623_4885)">
<circle cx="15" cy="15" r="15" fill="#FFDCCC"/>
<circle cx="15" cy="15" r="15" fill="url(#paint0_radial_7623_4885)"/>
<mask id="mask0_7623_4885" style="mask-type:alpha" maskUnits="userSpaceOnUse" x="0" y="0" width="30" height="30">
<circle cx="15" cy="15" r="15" fill="#C4C4C4"/>
</mask>
<g mask="url(#mask0_7623_4885)">
<path d="M22.2271 24.0547L18.298 22.668H11.7025L7.77343 24.0547C6.86085 24.3768 6.25061 25.2394 6.25061 26.2071V28.7768C6.25061 29.4071 6.76158 29.9181 7.39186 29.9181H22.6087C23.239 29.9181 23.75 29.4071 23.75 28.7768V26.2071C23.7499 25.2393 23.1397 24.3768 22.2271 24.0547Z" fill="url(#paint1_linear_7623_4885)"/>
<path d="M16.9023 22.6902H13.0981V29.918H16.9023V22.6902Z" fill="url(#paint2_linear_7623_4885)"/>
<path d="M13.0981 24.303C13.6193 24.7212 14.28 24.9727 15.0002 24.9727C15.7204 24.9727 16.3811 24.7212 16.9023 24.303V22.6902H13.0981V24.303Z" fill="url(#paint3_linear_7623_4885)"/>
<path d="M21.8425 18.2064C21.6541 17.73 21.4675 16.9728 21.4675 15.8423V12.7989C21.4675 9.22721 18.572 6.33179 15.0003 6.33179C11.4286 6.33179 8.53319 9.22721 8.53319 12.7989V15.8423C8.53319 16.9728 8.34658 17.73 8.15812 18.2065C8.00038 18.6054 8.21644 19.0555 8.62279 19.1929C9.52841 19.4992 11.0576 19.96 12.7178 20.217H17.2829C18.943 19.96 20.4722 19.4992 21.3778 19.1929C21.7843 19.0555 22.0003 18.6053 21.8425 18.2064Z" fill="url(#paint4_linear_7623_4885)"/>
<path d="M15.0003 24.2118C13.7397 24.2118 12.7178 23.1899 12.7178 21.9293V19.2664H17.2828V21.9293C17.2828 23.1899 16.2609 24.2118 15.0003 24.2118Z" fill="url(#paint5_linear_7623_4885)"/>
<path d="M12.7178 20.6887C13.4175 20.9955 14.1887 21.1684 15.0003 21.1684C15.812 21.1684 16.5831 20.9955 17.2828 20.6887V19.2664H12.7178L12.7178 20.6887Z" fill="url(#paint6_linear_7623_4885)"/>
<path d="M15.0003 20.4074C12.269 20.4074 10.0548 18.1932 10.0548 15.4619V9.75562H19.9458V15.4619C19.9458 18.1932 17.7316 20.4074 15.0003 20.4074Z" fill="url(#paint7_linear_7623_4885)"/>
<path d="M13.2774 11.3299C13.3576 11.2661 13.4429 11.2527 13.5002 11.2527C13.5564 11.2527 13.6407 11.2656 13.7229 11.3269C14.7479 12.0919 16.8263 13.3736 19.9458 14.0576V9.75562H10.0548V15.4619C10.0548 18.1932 12.269 20.4074 15.0003 20.4074C15.2597 20.4074 15.5125 20.3814 15.7611 20.343C13.392 19.9761 11.5765 17.9339 11.5765 15.4619V13.3176C11.5765 12.7956 11.8459 12.3143 12.2858 12.0334C12.6262 11.816 12.9612 11.5814 13.2774 11.3299Z" fill="url(#paint8_linear_7623_4885)"/>
<path d="M13.0982 13.94H12.3373C12.127 13.94 11.9569 13.7699 11.9569 13.5596C11.9569 13.3494 12.1271 13.1792 12.3373 13.1792H13.0982C13.3085 13.1792 13.4786 13.3494 13.4786 13.5596C13.4786 13.7699 13.3084 13.94 13.0982 13.94Z" fill="url(#paint9_linear_7623_4885)"/>
<path d="M17.6632 13.94H16.9024C16.6921 13.94 16.522 13.7699 16.522 13.5596C16.522 13.3494 16.6921 13.1792 16.9024 13.1792H17.6632C17.8735 13.1792 18.0436 13.3494 18.0436 13.5596C18.0436 13.7699 17.8735 13.94 17.6632 13.94Z" fill="url(#paint10_linear_7623_4885)"/>
<path d="M12.7178 15.4623C12.5075 15.4623 12.3374 15.2921 12.3374 15.0819V14.7015C12.3374 14.4912 12.5076 14.321 12.7178 14.321C12.9281 14.321 13.0982 14.4912 13.0982 14.7015V15.0819C13.0982 15.2921 12.9281 15.4623 12.7178 15.4623Z" fill="url(#paint11_radial_7623_4885)"/>
<path d="M17.2828 15.4623C17.0725 15.4623 16.9023 15.2921 16.9023 15.0819V14.7015C16.9023 14.4912 17.0725 14.321 17.2828 14.321C17.4931 14.321 17.6632 14.4912 17.6632 14.7015V15.0819C17.6632 15.2921 17.4931 15.4623 17.2828 15.4623Z" fill="url(#paint12_radial_7623_4885)"/>
<path d="M13.6903 16.7917C13.4577 16.7917 13.288 17.0214 13.3643 17.2411C13.58 17.8622 14.2309 18.3134 15.0003 18.3134C15.7698 18.3134 16.4207 17.8622 16.6363 17.2411C16.7126 17.0214 16.543 16.7917 16.3104 16.7917H13.6903Z" fill="white"/>
<path d="M14.178 10.7171C15.2876 11.5453 17.7174 13.0241 21.4674 13.5598V12.9684C21.4674 9.34344 18.501 6.26499 14.8767 6.33289C11.362 6.39872 8.53308 9.26844 8.53308 12.7989V13.0416C9.3445 12.7358 11.3051 11.9262 12.8038 10.7343C13.2037 10.4164 13.7686 10.4115 14.178 10.7171Z" fill="url(#paint13_linear_7623_4885)"/>
<path d="M18.9675 22.0278L17.2828 21.2332L15.0002 29.9182H16.9023L19.0064 25.3593C19.1173 25.1191 19.0954 24.8386 18.9487 24.6184L18.424 23.8314L19.1687 22.8385C19.3735 22.5655 19.2761 22.1734 18.9675 22.0278Z" fill="url(#paint14_linear_7623_4885)"/>
<path d="M11.033 22.0278L12.7178 21.2332L15.0003 29.9182H13.0982L10.9941 25.3593C10.8832 25.1191 10.9051 24.8386 11.0519 24.6184L11.5765 23.8314L10.8318 22.8385C10.627 22.5655 10.7244 22.1734 11.033 22.0278Z" fill="url(#paint15_linear_7623_4885)"/>
<path d="M21.4597 12.5036C21.3052 8.96191 18.3436 6.26798 14.8768 6.33294C14.1634 6.3463 13.4808 6.4803 12.8418 6.70677C14.3419 8.65046 17.2047 11.5225 21.4597 12.5036Z" fill="url(#paint16_linear_7623_4885)"/>
</g>
</g>
<defs>
<radialGradient id="paint0_radial_7623_4885" cx="0" cy="0" r="1" gradientUnits="userSpaceOnUse" gradientTransform="translate(4.6875 4.6875) rotate(48.4166) scale(29.6628)">
<stop offset="0.535317" stop-color="#FFDCCC"/>
<stop offset="1" stop-color="#FFB391"/>
</radialGradient>
<linearGradient id="paint1_linear_7623_4885" x1="15.0003" y1="22.668" x2="15.0003" y2="29.9181" gradientUnits="userSpaceOnUse">
<stop stop-color="#EDEBED"/>
<stop offset="1" stop-color="#FFFDFF"/>
</linearGradient>
<linearGradient id="paint2_linear_7623_4885" x1="15" y1="23.919" x2="15.0004" y2="29.918" gradientUnits="userSpaceOnUse">
<stop stop-color="#8CD3FF"/>
<stop offset="1" stop-color="#CFECFF"/>
</linearGradient>
<linearGradient id="paint3_linear_7623_4885" x1="13.9131" y1="23.9836" x2="15.841" y2="24.6722" gradientUnits="userSpaceOnUse">
<stop stop-color="#73B6E6"/>
<stop offset="1" stop-color="#92CCF5"/>
</linearGradient>
<linearGradient id="paint4_linear_7623_4885" x1="15.0001" y1="9.06235" x2="15.0003" y2="20.217" gradientUnits="userSpaceOnUse">
<stop stop-color="#171215"/>
<stop offset="1" stop-color="#64505A"/>
</linearGradient>
<linearGradient id="paint5_linear_7623_4885" x1="13.125" y1="20.0002" x2="16.875" y2="23.7502" gradientUnits="userSpaceOnUse">
<stop stop-color="#E3AA75"/>
<stop offset="1" stop-color="#FCBD82"/>
</linearGradient>
<linearGradient id="paint6_linear_7623_4885" x1="12.8125" y1="20.3127" x2="17.1875" y2="20.9377" gradientUnits="userSpaceOnUse">
<stop stop-color="#D29B6E"/>
<stop offset="1" stop-color="#D29B6E" stop-opacity="0"/>
</linearGradient>
<linearGradient id="paint7_linear_7623_4885" x1="10" y1="11.2499" x2="18.4375" y2="19.6874" gradientUnits="userSpaceOnUse">
<stop stop-color="#F5AE67"/>
<stop offset="1" stop-color="#F7C797"/>
</linearGradient>
<linearGradient id="paint8_linear_7623_4885" x1="10.9375" y1="11.2499" x2="13.4375" y2="19.9999" gradientUnits="userSpaceOnUse">
<stop stop-color="#DEA672"/>
<stop offset="1" stop-color="#E3AA75" stop-opacity="0"/>
</linearGradient>
<linearGradient id="paint9_linear_7623_4885" x1="12.5" y1="13.1247" x2="12.7177" y2="13.94" gradientUnits="userSpaceOnUse">
<stop stop-color="#54454D"/>
<stop offset="1" stop-color="#54454D" stop-opacity="0.56"/>
</linearGradient>
<linearGradient id="paint10_linear_7623_4885" x1="17.065" y1="13.1247" x2="17.2828" y2="13.94" gradientUnits="userSpaceOnUse">
<stop stop-color="#54454D"/>
<stop offset="1" stop-color="#54454D" stop-opacity="0.56"/>
</linearGradient>
<radialGradient id="paint11_radial_7623_4885" cx="0" cy="0" r="1" gradientUnits="userSpaceOnUse" gradientTransform="translate(12.5663 14.6624) rotate(71.565) scale(0.962331 0.641554)">
<stop stop-color="#040404"/>
<stop offset="1" stop-color="#767676"/>
</radialGradient>
<radialGradient id="paint12_radial_7623_4885" cx="0" cy="0" r="1" gradientUnits="userSpaceOnUse" gradientTransform="translate(17.1313 14.6624) rotate(71.565) scale(0.96233 0.641553)">
<stop stop-color="#040404"/>
<stop offset="1" stop-color="#767676"/>
</radialGradient>
<linearGradient id="paint13_linear_7623_4885" x1="10.625" y1="7.81235" x2="20.9375" y2="13.4373" gradientUnits="userSpaceOnUse">
<stop stop-color="#4A3D43"/>
<stop offset="1" stop-color="#6E5A64"/>
</linearGradient>
<linearGradient id="paint14_linear_7623_4885" x1="18.1249" y1="21.5626" x2="15.9374" y2="30.0001" gradientUnits="userSpaceOnUse">
<stop stop-color="#D3D1D4"/>
<stop offset="1" stop-color="#ECEAED"/>
</linearGradient>
<linearGradient id="paint15_linear_7623_4885" x1="11.875" y1="21.5626" x2="14.0625" y2="30.0001" gradientUnits="userSpaceOnUse">
<stop stop-color="#D3D1D4"/>
<stop offset="1" stop-color="#ECEAED"/>
</linearGradient>
<linearGradient id="paint16_linear_7623_4885" x1="18.4375" y1="7.49985" x2="16.25" y2="10.6248" gradientUnits="userSpaceOnUse">
<stop stop-color="#84737B"/>
<stop offset="1" stop-color="#84737B" stop-opacity="0"/>
</linearGradient>
<clipPath id="clip0_7623_4885">
<rect width="30" height="30" fill="white"/>
</clipPath>
</defs>
</svg>
